<svg xmlns="http://www.w3.org/2000/svg" width="512" height="400" viewBox="0 0 512 400">
<defs><linearGradient id="s33" x1="0" y1="0" x2="1" y2="1"><stop offset="0" stop-color="#2A2418"/><stop offset="1" stop-color="#14110A"/></linearGradient></defs>
<rect width="512" height="400" fill="url(#s33)"/><circle cx="171" cy="161" r="1" fill="#fff" opacity="0.30"/><circle cx="283" cy="122" r="2" fill="#fff" opacity="0.32"/><circle cx="190" cy="166" r="2" fill="#fff" opacity="0.34"/><circle cx="328" cy="175" r="2" fill="#fff" opacity="0.22"/><circle cx="288" cy="172" r="2" fill="#fff" opacity="0.12"/><circle cx="423" cy="79" r="2" fill="#fff" opacity="0.22"/><circle cx="53" cy="155" r="2" fill="#fff" opacity="0.27"/><circle cx="287" cy="81" r="2" fill="#fff" opacity="0.29"/><circle cx="251" cy="30" r="1" fill="#fff" opacity="0.18"/><circle cx="291" cy="54" r="1" fill="#fff" opacity="0.29"/><circle cx="126" cy="167" r="1.4" fill="#fff" opacity="0.29"/><circle cx="279" cy="81" r="1" fill="#fff" opacity="0.19"/><circle cx="311" cy="142" r="1.4" fill="#fff" opacity="0.20"/><circle cx="112" cy="8" r="1.4" fill="#fff" opacity="0.32"/><circle cx="126" cy="16" r="1" fill="#fff" opacity="0.12"/><circle cx="324" cy="0" r="1" fill="#fff" opacity="0.20"/><circle cx="356" cy="51" r="1" fill="#fff" opacity="0.27"/><circle cx="397" cy="117" r="2" fill="#fff" opacity="0.22"/><circle cx="366" cy="150" r="2" fill="#fff" opacity="0.21"/><circle cx="315" cy="124" r="1" fill="#fff" opacity="0.10"/><circle cx="388" cy="97" r="1.4" fill="#fff" opacity="0.13"/><circle cx="249" cy="3" r="2" fill="#fff" opacity="0.26"/><circle cx="322" cy="179" r="1" fill="#fff" opacity="0.33"/><circle cx="494" cy="8" r="2" fill="#fff" opacity="0.12"/>
<g opacity=".07" stroke="#fff"><path d="M0 40 H512"/><path d="M0 80 H512"/><path d="M0 120 H512"/><path d="M0 160 H512"/><path d="M0 200 H512"/><path d="M0 240 H512"/><path d="M0 280 H512"/><path d="M0 320 H512"/><path d="M0 360 H512"/></g>
<g stroke="#FFBF00" stroke-width="9" fill="none" stroke-linecap="round"><path d="M186 268 L286 168"/><circle cx="176" cy="278" r="14"/></g><path d="M292 162 a34 34 0 1 0 46 46 l-22 -22 -24 -24z" fill="#FFBF00"/><g stroke="#fff" stroke-width="3" opacity=".5"><path d="M150 130 H362"/><path d="M150 300 H362"/></g></svg>