<svg xmlns="http://www.w3.org/2000/svg" width="512" height="400" viewBox="0 0 512 400">
<defs><linearGradient id="s31" x1="0" y1="0" x2="1" y2="1"><stop offset="0" stop-color="#16283F"/><stop offset="1" stop-color="#0A1220"/></linearGradient></defs>
<rect width="512" height="400" fill="url(#s31)"/><circle cx="12" cy="120" r="1" fill="#fff" opacity="0.29"/><circle cx="144" cy="175" r="1" fill="#fff" opacity="0.13"/><circle cx="115" cy="137" r="1" fill="#fff" opacity="0.28"/><circle cx="142" cy="37" r="2" fill="#fff" opacity="0.11"/><circle cx="62" cy="34" r="1" fill="#fff" opacity="0.23"/><circle cx="458" cy="134" r="1.4" fill="#fff" opacity="0.15"/><circle cx="95" cy="30" r="1" fill="#fff" opacity="0.29"/><circle cx="412" cy="87" r="1" fill="#fff" opacity="0.15"/><circle cx="401" cy="93" r="2" fill="#fff" opacity="0.34"/><circle cx="215" cy="55" r="1.4" fill="#fff" opacity="0.25"/><circle cx="61" cy="13" r="1" fill="#fff" opacity="0.19"/><circle cx="208" cy="37" r="1.4" fill="#fff" opacity="0.11"/><circle cx="449" cy="166" r="1" fill="#fff" opacity="0.15"/><circle cx="442" cy="94" r="1" fill="#fff" opacity="0.18"/><circle cx="224" cy="123" r="1" fill="#fff" opacity="0.17"/><circle cx="300" cy="85" r="2" fill="#fff" opacity="0.20"/><circle cx="323" cy="54" r="2" fill="#fff" opacity="0.35"/><circle cx="313" cy="45" r="2" fill="#fff" opacity="0.26"/><circle cx="302" cy="23" r="1" fill="#fff" opacity="0.15"/><circle cx="383" cy="178" r="1" fill="#fff" opacity="0.27"/><circle cx="291" cy="78" r="2" fill="#fff" opacity="0.31"/><circle cx="201" cy="29" r="1.4" fill="#fff" opacity="0.15"/><circle cx="341" cy="113" r="1.4" fill="#fff" opacity="0.30"/><circle cx="120" cy="68" r="1" fill="#fff" opacity="0.32"/>
<g opacity=".07" stroke="#fff"><path d="M0 40 H512"/><path d="M0 80 H512"/><path d="M0 120 H512"/><path d="M0 160 H512"/><path d="M0 200 H512"/><path d="M0 240 H512"/><path d="M0 280 H512"/><path d="M0 320 H512"/><path d="M0 360 H512"/></g>
<circle cx="256" cy="196" r="74" fill="none" stroke="#FFBF00" stroke-width="6"/><path d="M256 122 V196 L312 232" stroke="#fff" stroke-width="5" fill="none" stroke-linecap="round"/><g stroke="#FFBF00" stroke-width="4"><path d="M150 196 H182"/><path d="M330 196 H362"/><path d="M256 90 V122"/></g></svg>