<svg xmlns="http://www.w3.org/2000/svg" width="1920" height="480" viewBox="0 0 1920 480" preserveAspectRatio="xMidYMid slice">
<defs><linearGradient id="ph46" x1="0" y1="0" x2="0.5" y2="1"><stop offset="0" stop-color="#0A1220"/><stop offset="1" stop-color="#16283F"/></linearGradient>
<radialGradient id="pr46" cx="0.78" cy="0.35" r="0.55"><stop offset="0" stop-color="#FFBF00" stop-opacity=".22"/><stop offset="1" stop-color="#FFBF00" stop-opacity="0"/></radialGradient></defs>
<rect width="1920" height="480" fill="url(#ph46)"/><circle cx="1819" cy="39" r="1.4" fill="#fff" opacity="0.11"/><circle cx="1201" cy="117" r="1.8" fill="#fff" opacity="0.28"/><circle cx="1195" cy="275" r="1" fill="#fff" opacity="0.11"/><circle cx="1603" cy="163" r="1.8" fill="#fff" opacity="0.39"/><circle cx="1726" cy="15" r="1" fill="#fff" opacity="0.29"/><circle cx="604" cy="270" r="1.4" fill="#fff" opacity="0.44"/><circle cx="1913" cy="47" r="1.4" fill="#fff" opacity="0.44"/><circle cx="980" cy="184" r="1" fill="#fff" opacity="0.26"/><circle cx="1701" cy="38" r="1.4" fill="#fff" opacity="0.36"/><circle cx="1114" cy="56" r="1.4" fill="#fff" opacity="0.18"/><circle cx="1037" cy="227" r="1.8" fill="#fff" opacity="0.20"/><circle cx="218" cy="181" r="1" fill="#fff" opacity="0.31"/><circle cx="942" cy="207" r="1" fill="#fff" opacity="0.23"/><circle cx="730" cy="104" r="1" fill="#fff" opacity="0.30"/><circle cx="1249" cy="160" r="1" fill="#fff" opacity="0.36"/><circle cx="1662" cy="59" r="1.4" fill="#fff" opacity="0.30"/><circle cx="749" cy="271" r="1.8" fill="#fff" opacity="0.30"/><circle cx="1192" cy="87" r="1.8" fill="#fff" opacity="0.29"/><circle cx="134" cy="201" r="1" fill="#fff" opacity="0.36"/><circle cx="690" cy="89" r="1.8" fill="#fff" opacity="0.10"/><circle cx="1466" cy="94" r="1.4" fill="#fff" opacity="0.24"/><circle cx="1353" cy="11" r="1.8" fill="#fff" opacity="0.33"/><circle cx="71" cy="101" r="1" fill="#fff" opacity="0.23"/><circle cx="175" cy="38" r="1.4" fill="#fff" opacity="0.25"/><circle cx="364" cy="69" r="1.4" fill="#fff" opacity="0.29"/><circle cx="1744" cy="143" r="1.8" fill="#fff" opacity="0.33"/><circle cx="772" cy="76" r="1.4" fill="#fff" opacity="0.33"/><circle cx="777" cy="67" r="1.4" fill="#fff" opacity="0.11"/><circle cx="108" cy="101" r="1" fill="#fff" opacity="0.23"/><circle cx="654" cy="141" r="1.8" fill="#fff" opacity="0.31"/><circle cx="1708" cy="261" r="1.4" fill="#fff" opacity="0.12"/><circle cx="506" cy="139" r="1.4" fill="#fff" opacity="0.27"/><circle cx="601" cy="284" r="1" fill="#fff" opacity="0.18"/><circle cx="1840" cy="168" r="1.8" fill="#fff" opacity="0.24"/><circle cx="1535" cy="29" r="1.8" fill="#fff" opacity="0.45"/><circle cx="1889" cy="268" r="1.4" fill="#fff" opacity="0.43"/><circle cx="1455" cy="169" r="1.4" fill="#fff" opacity="0.32"/><circle cx="1121" cy="6" r="1" fill="#fff" opacity="0.15"/><circle cx="1663" cy="105" r="1" fill="#fff" opacity="0.23"/><circle cx="605" cy="86" r="1.8" fill="#fff" opacity="0.10"/><circle cx="1345" cy="282" r="1.8" fill="#fff" opacity="0.32"/><circle cx="812" cy="45" r="1.8" fill="#fff" opacity="0.18"/><circle cx="1116" cy="61" r="1.8" fill="#fff" opacity="0.23"/><circle cx="1343" cy="7" r="1.4" fill="#fff" opacity="0.33"/><circle cx="438" cy="29" r="1.4" fill="#fff" opacity="0.32"/><circle cx="1450" cy="254" r="1.4" fill="#fff" opacity="0.24"/><circle cx="321" cy="146" r="1" fill="#fff" opacity="0.16"/><circle cx="476" cy="152" r="1.4" fill="#fff" opacity="0.22"/><circle cx="732" cy="42" r="1.4" fill="#fff" opacity="0.31"/><circle cx="1119" cy="138" r="1.8" fill="#fff" opacity="0.18"/>
<rect width="1920" height="480" fill="url(#pr46)"/>
<g opacity=".06" stroke="#fff"><path d="M0 0 V480"/><path d="M64 0 V480"/><path d="M128 0 V480"/><path d="M192 0 V480"/><path d="M256 0 V480"/><path d="M320 0 V480"/><path d="M384 0 V480"/><path d="M448 0 V480"/><path d="M512 0 V480"/><path d="M576 0 V480"/><path d="M640 0 V480"/><path d="M704 0 V480"/><path d="M768 0 V480"/><path d="M832 0 V480"/><path d="M896 0 V480"/><path d="M960 0 V480"/><path d="M1024 0 V480"/><path d="M1088 0 V480"/><path d="M1152 0 V480"/><path d="M1216 0 V480"/><path d="M1280 0 V480"/><path d="M1344 0 V480"/><path d="M1408 0 V480"/><path d="M1472 0 V480"/><path d="M1536 0 V480"/><path d="M1600 0 V480"/><path d="M1664 0 V480"/><path d="M1728 0 V480"/><path d="M1792 0 V480"/><path d="M1856 0 V480"/></g>
<path d="M0 400 q480 -90 960 -30 q480 60 960 -30" fill="none" stroke="#FFBF00" stroke-width="2" opacity=".5"/>
<g transform="translate(1520 210) rotate(-8)" opacity=".85">
<path d="M-90 0 q46 -20 158 -13 q30 1 30 11 q0 10 -30 11 q-112 7 -158 -9z" fill="#16243c"/>
<path d="M-22 -5 L-72 -62 q-5 -6 4 -6 h22 q7 0 12 6 L14 -5z" fill="#0F1B2E"/>
<path d="M84 -6 L112 -34 q5 -5 10 -1 q5 3 1 9 L112 -3z" fill="#FFBF00"/></g>
</svg>