<svg xmlns="http://www.w3.org/2000/svg" width="1920" height="480" viewBox="0 0 1920 480" preserveAspectRatio="xMidYMid slice">
<defs><linearGradient id="ph42" x1="0" y1="0" x2="0.5" y2="1"><stop offset="0" stop-color="#0A1520"/><stop offset="1" stop-color="#173042"/></linearGradient>
<radialGradient id="pr42" cx="0.78" cy="0.35" r="0.55"><stop offset="0" stop-color="#FFBF00" stop-opacity=".22"/><stop offset="1" stop-color="#FFBF00" stop-opacity="0"/></radialGradient></defs>
<rect width="1920" height="480" fill="url(#ph42)"/><circle cx="1309" cy="57" r="1" fill="#fff" opacity="0.36"/><circle cx="501" cy="114" r="1" fill="#fff" opacity="0.36"/><circle cx="1385" cy="279" r="1" fill="#fff" opacity="0.31"/><circle cx="65" cy="15" r="1" fill="#fff" opacity="0.18"/><circle cx="1034" cy="13" r="1.8" fill="#fff" opacity="0.17"/><circle cx="1330" cy="279" r="1.4" fill="#fff" opacity="0.18"/><circle cx="1206" cy="142" r="1" fill="#fff" opacity="0.37"/><circle cx="326" cy="216" r="1.4" fill="#fff" opacity="0.20"/><circle cx="440" cy="172" r="1" fill="#fff" opacity="0.13"/><circle cx="198" cy="183" r="1.4" fill="#fff" opacity="0.31"/><circle cx="1652" cy="22" r="1.8" fill="#fff" opacity="0.26"/><circle cx="255" cy="193" r="1" fill="#fff" opacity="0.29"/><circle cx="1698" cy="185" r="1.8" fill="#fff" opacity="0.17"/><circle cx="142" cy="23" r="1.8" fill="#fff" opacity="0.18"/><circle cx="592" cy="40" r="1" fill="#fff" opacity="0.40"/><circle cx="778" cy="142" r="1.4" fill="#fff" opacity="0.32"/><circle cx="747" cy="83" r="1.4" fill="#fff" opacity="0.22"/><circle cx="1372" cy="136" r="1.8" fill="#fff" opacity="0.43"/><circle cx="1327" cy="36" r="1.8" fill="#fff" opacity="0.32"/><circle cx="1093" cy="125" r="1" fill="#fff" opacity="0.26"/><circle cx="552" cy="285" r="1" fill="#fff" opacity="0.34"/><circle cx="1726" cy="28" r="1" fill="#fff" opacity="0.39"/><circle cx="1648" cy="161" r="1.4" fill="#fff" opacity="0.19"/><circle cx="432" cy="290" r="1.8" fill="#fff" opacity="0.21"/><circle cx="1342" cy="255" r="1.4" fill="#fff" opacity="0.41"/><circle cx="1316" cy="234" r="1" fill="#fff" opacity="0.19"/><circle cx="505" cy="287" r="1.8" fill="#fff" opacity="0.19"/><circle cx="1197" cy="219" r="1.8" fill="#fff" opacity="0.24"/><circle cx="449" cy="70" r="1.8" fill="#fff" opacity="0.27"/><circle cx="1547" cy="24" r="1" fill="#fff" opacity="0.15"/><circle cx="327" cy="216" r="1.8" fill="#fff" opacity="0.12"/><circle cx="781" cy="239" r="1.8" fill="#fff" opacity="0.19"/><circle cx="1133" cy="5" r="1.8" fill="#fff" opacity="0.35"/><circle cx="1396" cy="274" r="1.4" fill="#fff" opacity="0.37"/><circle cx="696" cy="57" r="1.4" fill="#fff" opacity="0.25"/><circle cx="929" cy="1" r="1.8" fill="#fff" opacity="0.41"/><circle cx="539" cy="256" r="1" fill="#fff" opacity="0.28"/><circle cx="217" cy="152" r="1.8" fill="#fff" opacity="0.28"/><circle cx="407" cy="78" r="1.4" fill="#fff" opacity="0.37"/><circle cx="1104" cy="271" r="1" fill="#fff" opacity="0.31"/><circle cx="1000" cy="9" r="1" fill="#fff" opacity="0.43"/><circle cx="1799" cy="157" r="1" fill="#fff" opacity="0.12"/><circle cx="1798" cy="290" r="1" fill="#fff" opacity="0.13"/><circle cx="995" cy="35" r="1.8" fill="#fff" opacity="0.37"/><circle cx="262" cy="243" r="1.8" fill="#fff" opacity="0.16"/><circle cx="1080" cy="216" r="1" fill="#fff" opacity="0.43"/><circle cx="1546" cy="102" r="1.8" fill="#fff" opacity="0.21"/><circle cx="1375" cy="191" r="1.4" fill="#fff" opacity="0.41"/><circle cx="924" cy="61" r="1" fill="#fff" opacity="0.18"/><circle cx="692" cy="10" r="1.8" fill="#fff" opacity="0.29"/>
<rect width="1920" height="480" fill="url(#pr42)"/>
<g opacity=".06" stroke="#fff"><path d="M0 0 V480"/><path d="M64 0 V480"/><path d="M128 0 V480"/><path d="M192 0 V480"/><path d="M256 0 V480"/><path d="M320 0 V480"/><path d="M384 0 V480"/><path d="M448 0 V480"/><path d="M512 0 V480"/><path d="M576 0 V480"/><path d="M640 0 V480"/><path d="M704 0 V480"/><path d="M768 0 V480"/><path d="M832 0 V480"/><path d="M896 0 V480"/><path d="M960 0 V480"/><path d="M1024 0 V480"/><path d="M1088 0 V480"/><path d="M1152 0 V480"/><path d="M1216 0 V480"/><path d="M1280 0 V480"/><path d="M1344 0 V480"/><path d="M1408 0 V480"/><path d="M1472 0 V480"/><path d="M1536 0 V480"/><path d="M1600 0 V480"/><path d="M1664 0 V480"/><path d="M1728 0 V480"/><path d="M1792 0 V480"/><path d="M1856 0 V480"/></g>
<path d="M0 400 q480 -90 960 -30 q480 60 960 -30" fill="none" stroke="#FFBF00" stroke-width="2" opacity=".5"/>
<g transform="translate(1520 210) rotate(-8)" opacity=".85">
<path d="M-90 0 q46 -20 158 -13 q30 1 30 11 q0 10 -30 11 q-112 7 -158 -9z" fill="#16243c"/>
<path d="M-22 -5 L-72 -62 q-5 -6 4 -6 h22 q7 0 12 6 L14 -5z" fill="#0F1B2E"/>
<path d="M84 -6 L112 -34 q5 -5 10 -1 q5 3 1 9 L112 -3z" fill="#FFBF00"/></g>
</svg>