<svg xmlns="http://www.w3.org/2000/svg" width="512" height="400" viewBox="0 0 512 400">
<defs><linearGradient id="g15" x1="0" y1="0" x2="1" y2="1"><stop offset="0" stop-color="#16332C"/><stop offset="1" stop-color="#0B1C18"/></linearGradient></defs>
<rect width="512" height="400" fill="url(#g15)"/><circle cx="213" cy="2" r="2" fill="#fff" opacity="0.28"/><circle cx="161" cy="61" r="1" fill="#fff" opacity="0.11"/><circle cx="150" cy="177" r="1.5" fill="#fff" opacity="0.16"/><circle cx="346" cy="119" r="2" fill="#fff" opacity="0.19"/><circle cx="401" cy="67" r="1.5" fill="#fff" opacity="0.16"/><circle cx="211" cy="90" r="1.5" fill="#fff" opacity="0.16"/><circle cx="523" cy="107" r="1" fill="#fff" opacity="0.24"/><circle cx="429" cy="125" r="1" fill="#fff" opacity="0.22"/><circle cx="368" cy="112" r="2" fill="#fff" opacity="0.18"/><circle cx="461" cy="103" r="1" fill="#fff" opacity="0.22"/><circle cx="19" cy="50" r="1" fill="#fff" opacity="0.23"/><circle cx="17" cy="73" r="2" fill="#fff" opacity="0.22"/><circle cx="102" cy="29" r="1.5" fill="#fff" opacity="0.11"/><circle cx="479" cy="185" r="2" fill="#fff" opacity="0.17"/><circle cx="514" cy="59" r="1" fill="#fff" opacity="0.24"/><circle cx="512" cy="90" r="1" fill="#fff" opacity="0.16"/><circle cx="318" cy="42" r="2" fill="#fff" opacity="0.18"/><circle cx="487" cy="86" r="1.5" fill="#fff" opacity="0.30"/><circle cx="278" cy="121" r="1" fill="#fff" opacity="0.13"/><circle cx="504" cy="99" r="1.5" fill="#fff" opacity="0.10"/><circle cx="266" cy="189" r="1" fill="#fff" opacity="0.17"/><circle cx="42" cy="115" r="1" fill="#fff" opacity="0.34"/><circle cx="162" cy="127" r="2" fill="#fff" opacity="0.22"/><circle cx="510" cy="11" r="2" fill="#fff" opacity="0.12"/><circle cx="83" cy="145" r="1.5" fill="#fff" opacity="0.16"/><circle cx="459" cy="177" r="2" fill="#fff" opacity="0.16"/>
<g opacity=".07" stroke="#fff" stroke-width="1"><path d="M0 40 H512"/><path d="M0 80 H512"/><path d="M0 120 H512"/><path d="M0 160 H512"/><path d="M0 200 H512"/><path d="M0 240 H512"/><path d="M0 280 H512"/><path d="M0 320 H512"/><path d="M0 360 H512"/></g>
<path d="M256 268 q-70 -46 -70 -104 q0 -46 70 -64 q70 18 70 64 q0 58 -70 104z" fill="none" stroke="#FFBF00" stroke-width="7"/><path d="M256 112 V262" stroke="#fff" stroke-width="3" opacity=".5"/><g stroke="#fff" stroke-width="3" opacity=".45"><path d="M256 178 L212 152"/><path d="M256 212 L300 186"/></g></svg>