<svg xmlns="http://www.w3.org/2000/svg" width="512" height="400" viewBox="0 0 512 400">
<defs><linearGradient id="g11" x1="0" y1="0" x2="1" y2="1"><stop offset="0" stop-color="#1B2A46"/><stop offset="1" stop-color="#0E1729"/></linearGradient></defs>
<rect width="512" height="400" fill="url(#g11)"/><circle cx="463" cy="143" r="1.5" fill="#fff" opacity="0.21"/><circle cx="194" cy="47" r="2" fill="#fff" opacity="0.22"/><circle cx="190" cy="24" r="1.5" fill="#fff" opacity="0.18"/><circle cx="92" cy="137" r="2" fill="#fff" opacity="0.26"/><circle cx="405" cy="115" r="2" fill="#fff" opacity="0.28"/><circle cx="161" cy="159" r="1" fill="#fff" opacity="0.31"/><circle cx="64" cy="15" r="1" fill="#fff" opacity="0.15"/><circle cx="247" cy="153" r="1" fill="#fff" opacity="0.29"/><circle cx="334" cy="112" r="2" fill="#fff" opacity="0.31"/><circle cx="531" cy="59" r="2" fill="#fff" opacity="0.17"/><circle cx="4" cy="169" r="1" fill="#fff" opacity="0.21"/><circle cx="284" cy="104" r="2" fill="#fff" opacity="0.35"/><circle cx="85" cy="181" r="1.5" fill="#fff" opacity="0.18"/><circle cx="235" cy="131" r="1.5" fill="#fff" opacity="0.11"/><circle cx="110" cy="102" r="1" fill="#fff" opacity="0.31"/><circle cx="395" cy="17" r="1" fill="#fff" opacity="0.31"/><circle cx="0" cy="54" r="1" fill="#fff" opacity="0.33"/><circle cx="53" cy="120" r="1.5" fill="#fff" opacity="0.35"/><circle cx="406" cy="107" r="1" fill="#fff" opacity="0.24"/><circle cx="203" cy="199" r="2" fill="#fff" opacity="0.17"/><circle cx="89" cy="79" r="1.5" fill="#fff" opacity="0.10"/><circle cx="419" cy="194" r="1" fill="#fff" opacity="0.13"/><circle cx="103" cy="2" r="1" fill="#fff" opacity="0.22"/><circle cx="498" cy="45" r="2" fill="#fff" opacity="0.24"/><circle cx="458" cy="130" r="1" fill="#fff" opacity="0.35"/><circle cx="134" cy="107" r="2" fill="#fff" opacity="0.20"/>
<g opacity=".07" stroke="#fff" stroke-width="1"><path d="M0 40 H512"/><path d="M0 80 H512"/><path d="M0 120 H512"/><path d="M0 160 H512"/><path d="M0 200 H512"/><path d="M0 240 H512"/><path d="M0 280 H512"/><path d="M0 320 H512"/><path d="M0 360 H512"/></g>
<g stroke="#FFBF00" stroke-width="9" stroke-linecap="round" fill="none"><path d="M256 150 V246"/><path d="M208 198 H304"/></g><circle cx="256" cy="198" r="70" fill="none" stroke="#fff" stroke-width="4" opacity=".5"/></svg>